<?xml version="1.0" standalone="no"?>
<!DOCTYPE svg PUBLIC "-//W3C//DTD SVG 20010904//EN"
 "http://www.w3.org/TR/2001/REC-SVG-20010904/DTD/svg10.dtd">
<svg version="1.0" xmlns="http://www.w3.org/2000/svg"
 width="512.000000pt" height="512.000000pt" viewBox="0 0 512.000000 512.000000"
 preserveAspectRatio="xMidYMid meet">
<metadata>
Created by potrace 1.11, written by Peter Selinger 2001-2013
</metadata>
<g transform="translate(0.000000,512.000000) scale(0.100000,-0.100000)"
fill="#000000" stroke="none">
<path d="M2350 4914 c-435 -53 -771 -172 -1097 -391 -554 -372 -921 -954
-1020 -1618 -24 -165 -24 -505 0 -665 104 -679 476 -1261 1042 -1632 570 -374
1265 -481 1930 -296 397 110 752 323 1051 629 345 355 565 804 640 1304 22
146 25 474 5 615 -80 588 -360 1112 -795 1487 -269 231 -597 406 -930 494
-206 55 -331 71 -571 74 -121 2 -236 1 -255 -1z m410 -44 c547 -49 1058 -286
1440 -670 377 -379 605 -862 661 -1400 13 -122 7 -468 -8 -508 -8 -20 -11 -21
-27 -9 -18 13 -19 32 -21 278 -1 285 -13 386 -71 599 -228 839 -933 1476
-1799 1625 -397 68 -864 16 -1223 -136 -122 -52 -136 -55 -162 -36 -22 15 -22
16 28 41 330 167 787 251 1182 216z m-149 -226 c7 -9 14 -38 16 -65 2 -44 0
-51 -21 -60 -17 -8 -29 -8 -45 0 -18 10 -21 19 -17 68 5 69 35 95 67 57z
m-153 -6 c17 -17 15 -36 -9 -66 l-21 -27 26 -3 c14 -2 26 -10 26 -18 0 -10
-13 -14 -50 -14 -27 0 -50 4 -50 9 0 5 16 28 35 51 19 23 32 46 29 51 -8 14
-34 10 -40 -6 -7 -18 -24 -20 -24 -2 0 19 21 37 45 37 12 0 26 -5 33 -12z
m-173 -42 c11 -55 11 -91 0 -94 -5 -1 -11 8 -13 20 -6 54 -12 67 -27 62 -20
-8 -19 5 2 28 23 26 31 23 38 -16z m75 -1 c0 -8 -7 -15 -15 -15 -8 0 -15 7
-15 15 0 8 7 15 15 15 8 0 15 -7 15 -15z m160 -71 c0 -9 -5 -14 -12 -12 -18 6
-21 28 -4 28 9 0 16 -7 16 -16z m-150 -9 c0 -8 -7 -15 -15 -15 -8 0 -15 7 -15
15 0 8 7 15 15 15 8 0 15 -7 15 -15z m929 -52 c-22 -66 -22 -63 -9 -63 6 0 10
7 10 15 0 9 6 12 15 9 8 -4 15 -12 15 -20 0 -7 9 -18 19 -24 33 -17 36 8 6 40
-34 35 -30 64 8 68 30 4 67 -21 67 -45 0 -21 -27 -15 -33 7 -3 12 -14 20 -26
20 -29 0 -26 -12 9 -38 30 -23 39 -55 19 -68 -6 -3 24 -24 67 -46 44 -22 81
-44 82 -49 2 -5 8 -7 13 -3 5 3 9 0 9 -6 0 -6 5 -8 10 -5 6 3 10 0 11 -7 0 -9
2 -8 6 2 13 32 65 100 73 95 5 -3 -3 -28 -18 -56 -27 -49 -27 -50 -7 -65 22
-16 24 -15 73 53 35 48 33 6 -2 -45 -26 -39 -30 -52 -20 -56 8 -3 14 1 14 10
0 9 5 14 11 12 6 -2 9 -6 8 -8 -6 -11 23 -50 36 -50 19 0 19 19 0 44 -19 25
-19 50 -1 65 23 19 76 -12 76 -44 0 -31 -17 -33 -22 -2 -2 14 -11 23 -25 25
-28 4 -29 -3 -3 -35 24 -31 26 -56 5 -73 -9 -7 -13 -15 -10 -18 3 -3 28 16 55
43 41 41 50 46 56 31 4 -9 0 -35 -9 -57 -8 -21 -13 -39 -11 -39 3 0 23 9 46
21 62 32 69 11 17 -51 -42 -50 -43 -52 -24 -66 10 -8 15 -14 11 -14 -4 0 16
-28 45 -62 39 -44 47 -58 29 -48 -21 11 -20 7 10 -25 30 -32 32 -36 10 -25
-24 12 -24 11 4 -19 17 -17 26 -31 22 -31 -22 0 -71 39 -151 120 -354 360
-827 557 -1349 561 -70 0 -85 3 -66 10 17 7 21 12 12 18 -19 12 226 41 306 36
40 -3 77 -7 82 -10 4 -3 35 -7 68 -10 33 -3 90 -14 126 -25 36 -10 66 -16 66
-13 0 3 6 0 13 -6 8 -6 16 -9 19 -6 3 3 21 -2 41 -10 l37 -15 14 33 c7 19 17
43 20 55 4 12 14 22 21 22 11 0 10 -11 -6 -57z m-1563 -31 c18 -12 45 -72 38
-84 -4 -7 -15 4 -26 26 -10 20 -25 36 -33 36 -19 0 -19 -18 0 -50 17 -30 18
-40 5 -40 -6 0 -18 16 -27 35 -9 19 -21 35 -25 35 -17 0 -19 -29 -3 -59 13
-25 13 -31 2 -31 -8 0 -22 18 -32 40 -18 39 -18 41 1 55 10 8 26 15 35 15 9 0
22 7 29 15 14 17 20 18 36 7z m-110 -113 c17 -33 17 -39 4 -39 -5 0 -16 14
-25 30 -16 30 -45 41 -45 17 0 -7 7 -22 15 -33 8 -10 15 -25 15 -31 0 -23 -19
-13 -35 17 -16 30 -45 41 -45 17 0 -7 7 -22 15 -33 17 -22 19 -44 5 -44 -5 0
-19 18 -31 41 l-20 41 23 17 c78 55 95 55 124 0z m754 26 c25 -2 108 -9 185
-14 219 -16 288 -26 427 -63 56 -15 77 -25 81 -39 6 -22 8 -22 -68 -4 -95 23
-98 22 -78 -21 14 -29 31 -42 89 -68 114 -53 302 -193 296 -221 -1 -6 16 -21
38 -34 130 -73 410 -327 410 -372 0 -10 -2 -19 -4 -19 -2 0 -46 43 -97 96 -52
53 -131 124 -176 157 -82 62 -220 143 -229 134 -3 -2 27 -23 65 -46 131 -77
288 -214 380 -331 75 -95 32 -71 -87 48 -121 122 -199 183 -316 247 -76 43
-102 42 -29 0 132 -77 298 -221 394 -341 46 -58 59 -84 41 -84 -4 0 -37 34
-72 76 -36 42 -106 111 -156 153 -89 74 -249 179 -259 169 -3 -2 40 -35 95
-72 157 -107 382 -341 366 -382 -4 -12 -24 6 -70 63 -98 122 -225 231 -358
308 -76 43 -55 15 29 -39 152 -100 388 -355 364 -394 -5 -9 -21 4 -51 45 -94
125 -237 254 -362 327 -72 42 -57 18 20 -34 120 -80 362 -340 362 -389 0 -28
-21 -14 -59 39 -98 140 -260 281 -396 346 -51 25 -71 31 -76 21 -15 -26 0 -86
46 -180 44 -92 46 -99 29 -111 -15 -12 -25 -9 -72 21 -61 39 -139 76 -196 91
-32 9 -36 9 -25 -4 6 -8 10 -16 8 -19 -4 -4 -62 -10 -129 -15 -24 -2 -23 -2 8
-16 17 -8 32 -18 32 -22 0 -5 19 -14 43 -21 53 -16 197 -90 197 -102 0 -16
-27 -10 -86 20 -69 34 -156 61 -196 61 -17 0 -40 -10 -56 -25 -15 -14 -34 -25
-42 -25 -13 0 -13 -2 -1 -9 21 -14 -10 -41 -46 -41 -15 0 -48 -14 -73 -30 -40
-27 -42 -30 -20 -30 25 0 25 -1 4 -13 -12 -6 -48 -27 -82 -44 -77 -41 -87 -57
-20 -31 63 23 164 33 243 23 l57 -7 -29 -18 c-20 -12 -57 -19 -119 -22 -78 -3
-101 -9 -167 -40 -42 -20 -98 -57 -125 -82 -26 -24 -61 -48 -76 -52 l-30 -7
22 29 c37 51 76 90 121 122 47 34 41 43 -12 15 -37 -19 -97 -34 -97 -24 0 4 6
13 13 20 11 12 -1 8 -98 -34 -50 -22 -65 -25 -65 -14 0 6 -20 9 -47 7 -46 -3
-49 -5 -81 -58 -18 -30 -43 -88 -54 -127 -22 -73 -38 -94 -38 -49 0 27 43 164
66 208 24 46 3 53 -36 13 -19 -19 -38 -35 -43 -35 -5 0 -6 22 -3 51 4 28 2 48
-2 45 -17 -10 -71 -132 -92 -206 -27 -96 -37 -264 -21 -366 57 -352 312 -630
666 -727 114 -31 343 -30 460 1 321 88 572 337 649 644 13 48 25 91 28 94 6 5
88 -32 98 -45 8 -11 83 -40 110 -43 14 -2 26 -10 28 -21 6 -31 -47 -198 -93
-296 -46 -94 -55 -131 -17 -67 77 130 129 306 148 499 9 97 30 83 27 -19 -4
-146 -45 -317 -113 -461 -21 -46 -35 -83 -31 -83 11 0 77 130 106 210 38 109
64 222 71 321 5 68 10 86 20 82 19 -7 18 -83 -1 -203 -20 -122 -57 -243 -106
-349 -22 -46 -37 -86 -35 -88 12 -13 109 198 140 307 23 79 46 216 46 273 0
35 4 47 15 47 11 0 15 -12 15 -52 0 -137 -57 -367 -131 -525 -48 -105 -26 -92
26 15 70 143 120 314 131 455 7 74 17 96 31 61 8 -22 -14 -191 -38 -286 -26
-103 -64 -208 -106 -292 -39 -77 -38 -101 1 -34 86 147 153 359 172 540 5 52
10 65 21 61 11 -5 13 -19 8 -72 -18 -174 -73 -368 -150 -522 -26 -50 -44 -93
-41 -96 8 -9 85 140 127 246 40 101 80 261 94 369 9 72 31 64 27 -9 -12 -205
-106 -473 -240 -686 -29 -46 -52 -88 -52 -94 0 -20 -100 -137 -190 -222 -59
-55 -90 -92 -90 -106 0 -11 5 -21 11 -21 31 0 240 195 322 300 71 91 73 93 37
24 -18 -34 -66 -101 -106 -149 -41 -48 -74 -92 -74 -98 0 -33 197 190 285 323
48 72 73 84 39 18 -23 -46 -119 -191 -172 -261 -28 -38 -42 -65 -39 -77 6 -24
-122 -149 -240 -235 -47 -34 -83 -67 -83 -76 0 -42 -152 -161 -182 -143 -6 4
-8 3 -4 -4 4 -6 -24 -22 -73 -41 -571 -220 -1202 -152 -1706 183 -209 140
-408 339 -520 521 -29 47 -3 17 60 -70 70 -95 213 -246 311 -326 236 -193 524
-328 834 -391 101 -20 144 -23 345 -23 247 0 310 8 504 62 l94 27 -49 14 c-43
12 -57 12 -148 -7 -118 -24 -285 -45 -293 -37 -4 3 2 6 13 6 18 0 18 1 -1 14
-14 9 -68 15 -165 19 -180 7 -410 48 -448 79 -7 6 -67 33 -135 60 -206 83
-382 194 -544 343 -80 73 -223 238 -191 219 8 -5 64 -60 124 -123 159 -166
289 -263 482 -360 241 -121 470 -173 754 -172 215 0 219 17 7 24 -203 6 -312
24 -464 73 -100 32 -335 136 -335 148 0 2 42 -15 93 -38 117 -55 284 -109 412
-132 135 -25 410 -26 545 -1 51 10 96 20 99 23 12 11 -18 39 -40 37 -13 -1
-91 -7 -172 -14 -109 -10 -153 -10 -166 -2 -10 6 -63 16 -117 23 -123 14 -253
44 -364 82 -106 37 -280 127 -280 145 0 7 2 13 4 13 2 0 50 -22 107 -49 57
-28 138 -61 179 -75 98 -32 267 -66 322 -65 24 1 32 3 18 6 -219 34 -442 111
-582 200 -70 44 -28 43 60 -1 157 -79 393 -148 499 -145 26 1 3 8 -72 24 -120
25 -202 50 -310 97 -54 24 -168 85 -194 104 -1 1 0 8 4 13 4 7 28 -1 68 -23
126 -70 323 -135 470 -154 88 -11 87 2 -1 16 -120 20 -244 61 -367 121 -119
59 -170 94 -160 111 3 5 30 -7 61 -25 126 -76 347 -150 479 -161 54 -4 49 -2
-45 21 -58 13 -132 34 -165 46 -153 54 -319 147 -309 172 4 11 23 4 82 -29
135 -78 313 -137 450 -150 37 -4 65 -4 62 -2 -3 3 -52 15 -110 27 -58 13 -150
40 -205 62 -97 39 -255 125 -255 140 0 21 25 15 87 -20 89 -52 200 -96 310
-123 70 -17 113 -21 208 -19 144 2 217 12 223 29 3 9 -25 12 -118 12 -524 0
-992 355 -1126 855 -61 228 -55 423 21 691 3 10 -4 -1 -16 -25 -11 -24 -31
-83 -43 -132 -13 -49 -25 -86 -28 -83 -12 12 -21 -134 -15 -255 6 -131 35
-274 76 -365 19 -44 19 -46 1 -46 -13 0 -25 18 -44 68 -60 158 -92 365 -81
531 4 69 3 81 -6 61 -7 -15 -12 -85 -12 -180 0 -168 13 -250 62 -397 23 -70
25 -83 12 -83 -19 0 -51 78 -80 190 -31 122 -44 262 -39 399 4 92 3 117 -4 91
-5 -19 -10 -111 -11 -205 0 -179 18 -296 65 -422 13 -35 16 -58 10 -69 -7 -13
-14 -3 -34 47 -63 156 -93 357 -85 554 4 97 2 124 -6 105 -6 -14 -11 -102 -11
-205 -1 -196 10 -269 64 -440 16 -49 28 -91 26 -93 -11 -11 -39 41 -65 121
-54 168 -66 253 -66 466 0 214 -12 209 -21 -9 -9 -180 24 -394 81 -542 5 -13
2 -18 -8 -18 -20 0 -68 145 -93 281 -19 100 -26 416 -11 474 6 20 5 27 -2 20
-5 -5 -15 -67 -22 -138 -16 -161 -3 -332 40 -501 17 -66 29 -121 27 -123 -19
-20 -62 105 -94 272 -23 125 -21 403 4 540 12 61 21 124 22 142 3 85 133 354
246 508 66 90 106 168 93 181 -6 7 -102 -99 -162 -181 -65 -87 -135 -208 -178
-305 -18 -41 -38 -76 -45 -77 -13 -3 19 90 70 199 54 117 24 96 -39 -28 -101
-199 -159 -415 -179 -666 -4 -58 -9 -78 -20 -78 -8 0 -14 7 -14 16 0 8 5 12
11 9 6 -4 5 2 -2 13 -23 37 13 319 62 486 15 49 18 75 11 90 -12 26 8 81 84
226 128 245 342 485 573 640 60 40 78 54 136 105 57 50 115 91 145 100 14 4
41 16 60 26 19 11 40 19 46 19 6 0 17 6 23 14 7 8 27 18 44 21 18 4 46 13 62
21 45 20 125 23 285 9z m-950 -105 c26 -36 26 -76 0 -90 -25 -13 -50 -1 -74
34 -48 75 23 128 74 56z m-89 -61 c63 -67 10 -137 -55 -72 -32 32 -43 68 -26
88 20 24 50 18 81 -16z m-104 -55 c3 -8 16 -20 29 -25 32 -11 34 -63 3 -79
-23 -13 -49 -7 -49 11 0 6 6 9 13 6 21 -8 41 9 33 28 -4 11 -13 15 -26 12 -16
-4 -20 0 -20 19 0 15 -6 24 -15 24 -8 0 -15 -9 -15 -20 0 -11 -4 -20 -10 -20
-14 0 -13 33 2 48 17 17 48 15 55 -4z m-37 -102 c0 -5 -9 -17 -20 -27 -14 -12
-18 -25 -14 -42 7 -27 -11 -53 -36 -53 -23 0 -70 37 -80 64 -19 51 35 74 84
35 19 -15 26 -17 26 -7 0 15 19 38 32 38 4 0 8 -4 8 -8z m-151 -126 c33 -68
36 -76 23 -76 -5 0 -21 23 -37 52 l-28 51 -18 -22 c-10 -12 -20 -17 -23 -12
-5 8 39 71 49 71 1 0 16 -29 34 -64z m-259 -315 c0 -5 -9 -11 -20 -14 -21 -5
-37 -33 -26 -45 4 -3 13 -2 20 3 61 45 66 47 81 35 20 -17 19 -59 -2 -82 -20
-23 -53 -24 -53 -1 0 9 3 13 6 10 12 -11 44 13 44 33 0 27 -16 25 -52 -5 -23
-20 -33 -23 -49 -15 -23 13 -24 38 -3 68 15 21 54 31 54 13z m24 -151 c12 -12
-35 -30 -75 -30 -39 0 -37 -13 7 -33 19 -10 32 -21 29 -26 -7 -12 -125 41
-121 54 1 6 26 14 54 19 29 5 52 12 52 16 0 3 -16 12 -35 19 -19 7 -35 19 -35
26 0 11 14 8 58 -11 31 -14 61 -30 66 -34z m-169 -97 c-12 -44 -11 -56 3 -60
8 -3 18 8 25 26 14 38 32 41 22 4 -11 -46 -11 -48 10 -48 13 0 22 10 29 33 9
32 26 44 26 18 0 -16 -28 -86 -35 -86 -5 0 -118 41 -123 45 -1 1 6 23 15 48
19 50 40 65 28 20z m65 -179 c-9 -25 -16 -34 -27 -30 -9 4 -35 11 -59 17 -41
11 -62 24 -52 34 2 2 26 -2 53 -10 62 -19 59 -20 74 18 17 42 26 18 11 -29z
m-90 -145 c32 -7 48 -15 43 -20 -6 -6 -26 -6 -51 0 -23 5 -42 7 -42 5 0 -2 18
-13 40 -24 50 -26 53 -50 6 -50 -19 0 -38 -4 -41 -10 -4 -6 6 -10 24 -10 26 0
50 -15 40 -25 -2 -1 -32 2 -67 8 -49 8 -62 13 -60 26 2 11 20 19 57 24 l55 9
-47 27 c-79 44 -59 62 43 40z m2035 -8 c96 -29 150 -59 203 -112 243 -243 124
-646 -205 -699 -117 -19 -239 21 -336 110 -183 168 -182 456 2 623 98 89 214
116 336 78z m-2043 -158 c26 -23 24 -78 -4 -97 -32 -23 -65 -20 -94 10 -44 43
-15 104 50 104 16 0 38 -7 48 -17z m-33 -134 c53 -19 56 -96 3 -118 -59 -25
-119 29 -94 84 7 14 22 30 34 35 13 5 23 9 24 9 1 1 15 -4 33 -10z m-36 -174
c25 -19 48 -35 51 -35 3 0 6 16 6 35 0 19 5 35 10 35 6 0 10 -25 10 -55 0 -30
-3 -55 -6 -55 -3 0 -29 18 -57 40 l-52 39 -3 -34 c-5 -53 -22 -41 -22 15 0 28
4 50 9 50 4 0 29 -16 54 -35z m4040 -370 c34 -7 55 -20 45 -30 -2 -2 -29 2
-60 9 l-56 13 -7 -34 c-3 -18 -11 -33 -17 -33 -6 0 -8 13 -3 37 9 50 13 56 39
49 11 -2 38 -8 59 -11z m-41 -101 c63 -18 67 -25 47 -83 -12 -34 -34 -44 -25
-11 3 11 8 28 11 39 9 31 -24 35 -35 5 -6 -14 -10 -30 -10 -35 0 -5 -5 -9 -10
-9 -6 0 -8 16 -4 41 6 36 5 41 -12 37 -11 -2 -22 -17 -28 -36 -8 -31 -26 -45
-26 -21 0 18 23 89 28 89 3 0 32 -7 64 -16z m-27 -125 c30 -11 55 -24 55 -29
0 -5 -19 -14 -42 -20 -74 -19 -76 -21 -30 -37 39 -14 58 -34 30 -32 -28 1
-112 36 -116 47 -4 13 0 15 68 33 l45 12 -42 14 c-24 8 -43 19 -43 24 0 13 13
11 75 -12z m-75 -117 c0 -4 -10 -12 -22 -17 -26 -11 -38 -55 -15 -55 8 0 22
12 31 26 23 34 70 31 74 -6 4 -36 -19 -63 -49 -58 -23 4 -23 5 -4 13 23 10 35
24 35 43 0 21 -27 13 -44 -14 -24 -36 -70 -31 -74 9 -4 33 22 67 50 67 10 0
18 -3 18 -8z m-30 -267 c-8 -9 -21 -10 -48 -4 -62 14 -65 11 -33 -28 30 -36
40 -63 24 -63 -16 0 -113 61 -113 70 0 14 4 13 47 -12 35 -21 37 -21 23 -3 -8
11 -22 30 -33 41 -24 28 -11 35 39 24 51 -12 63 -12 39 2 -48 26 -65 39 -60
48 3 5 32 -7 65 -27 46 -27 58 -39 50 -48z m-137 -98 c36 -51 45 -77 30 -77
-7 0 -58 11 -121 25 -13 3 -20 10 -16 16 3 6 16 8 29 5 28 -7 56 37 37 56 -14
14 -16 28 -4 28 5 0 25 -24 45 -53z m-63 -98 l52 -41 -24 -25 c-37 -40 -54
-45 -88 -28 -33 17 -51 50 -41 75 10 24 35 60 43 60 3 0 30 -18 58 -41z m-88
-106 l48 -47 -32 -33 c-41 -43 -56 -43 -24 0 20 26 23 36 14 45 -9 9 -18 6
-40 -15 -33 -31 -37 -23 -8 17 18 25 18 29 4 41 -13 11 -19 8 -41 -19 -13 -18
-29 -30 -34 -26 -8 5 47 81 61 83 2 1 26 -20 52 -46z m-2976 -122 c-14 -15
-26 -32 -26 -39 0 -22 37 -13 54 13 9 14 22 23 27 19 7 -4 0 -17 -15 -33 -14
-15 -26 -32 -26 -39 0 -19 35 -14 55 8 31 34 38 22 8 -14 -15 -19 -30 -35 -33
-35 -10 -2 -90 72 -90 82 0 18 51 77 61 71 6 -4 0 -17 -15 -33z m2814 -46 c24
-24 41 -48 37 -52 -8 -7 -97 75 -97 89 0 17 18 6 60 -37z m0 -87 c0 -12 -21
-10 -73 6 -53 16 -58 10 -22 -24 28 -26 37 -62 10 -40 -30 25 -76 90 -71 99 4
5 25 3 53 -5 65 -20 70 -18 40 14 -15 15 -27 35 -27 43 1 14 90 -78 90 -93z
m-2680 54 c0 -5 -9 -17 -20 -27 -23 -21 -27 -55 -6 -55 8 0 25 14 37 32 13 17
25 26 27 20 2 -7 -6 -24 -17 -38 -26 -33 -26 -44 -2 -44 11 0 28 12 39 27 11
16 23 25 27 21 8 -8 -43 -78 -57 -78 -5 0 -20 11 -32 24 -13 12 -31 26 -40 29
-22 9 -20 33 5 68 20 28 39 38 39 21z m2438 -120 c3 -9 -3 -11 -22 -6 -34 8
-34 -10 0 -59 14 -21 24 -43 22 -49 -5 -14 -68 74 -68 94 0 34 58 51 68 20z
m-2238 -32 c0 -6 -20 -25 -45 -42 -42 -30 -44 -32 -25 -45 11 -8 20 -18 20
-24 0 -10 -70 32 -70 43 0 4 15 14 34 23 19 9 42 25 52 36 19 21 34 25 34 9z
m2153 -12 c13 -55 18 -116 10 -121 -5 -3 -33 13 -62 35 -29 22 -55 38 -57 35
-3 -3 6 -28 20 -56 14 -28 26 -52 26 -54 0 -2 -19 -12 -41 -23 l-41 -18 -19
23 c-22 26 -12 55 21 66 22 7 25 22 11 44 -13 21 36 46 56 30 23 -19 61 6 55
37 -6 30 14 32 21 2z m-2089 -69 c-15 -16 -37 -32 -48 -35 -19 -6 -18 -8 9
-30 17 -13 25 -24 18 -24 -14 0 -73 33 -73 41 0 3 23 20 50 37 28 17 50 36 50
42 0 6 5 8 11 4 7 -4 0 -17 -17 -35z m1886 -94 c0 -41 -3 -75 -6 -75 -13 0
-112 95 -107 103 3 4 13 1 23 -8 24 -22 70 -2 70 32 0 12 5 23 10 23 6 0 10
-32 10 -75z m-1714 10 c30 -30 30 -40 -1 -69 -14 -13 -25 -30 -26 -37 0 -11
-2 -11 -6 -1 -3 7 -16 24 -29 37 -31 31 -30 49 1 73 14 11 25 26 26 33 0 11 2
11 6 1 3 -7 16 -24 29 -37z m1608 -53 c21 -53 22 -62 9 -62 -9 0 -30 10 -47
23 -55 41 -57 41 -41 -4 18 -49 18 -49 6 -49 -11 0 -52 111 -45 122 3 5 28 -7
55 -27 53 -38 57 -36 34 18 -8 19 -11 37 -8 41 9 9 11 6 37 -62z"/>
<path d="M2575 4630 c-7 -12 2 -30 16 -30 12 0 12 27 0 35 -5 3 -12 1 -16 -5z"/>
<path d="M2565 4570 c-4 -7 -3 -16 3 -22 14 -14 45 -2 40 15 -6 16 -34 21 -43
7z"/>
<path d="M3835 4100 c-13 -14 -15 -24 -8 -31 7 -7 14 -1 21 20 13 36 11 38
-13 11z"/>
<path d="M3893 4059 c-18 -12 -30 -25 -27 -31 3 -5 19 3 35 18 42 41 40 44 -8
13z"/>
<path d="M2763 4143 c13 -25 27 -31 118 -54 57 -14 105 -25 107 -23 2 1 -3 18
-11 37 -15 33 -18 35 -89 46 -40 7 -88 14 -106 17 l-33 5 14 -28z"/>
<path d="M1363 4244 c-8 -23 21 -68 46 -72 26 -4 28 18 5 53 -20 30 -43 39
-51 19z"/>
<path d="M1275 4180 c-13 -21 44 -88 64 -75 16 9 13 23 -10 56 -21 29 -43 37
-54 19z"/>
<path d="M1070 3981 c0 -21 47 -64 64 -58 20 7 17 27 -8 52 -30 30 -56 33 -56
6z"/>
<path d="M2495 2956 c-115 -28 -212 -107 -264 -216 -22 -47 -26 -68 -26 -150
0 -84 3 -103 29 -157 57 -124 181 -210 319 -220 166 -13 315 75 385 225 23 49
27 70 27 152 0 82 -4 103 -27 152 -53 114 -157 194 -283 217 -71 13 -95 13
-160 -3z m248 -44 c65 -32 147 -108 147 -137 0 -20 -34 -40 -103 -60 -54 -15
-60 -20 -75 -56 -16 -39 -18 -40 -58 -36 -59 5 -98 46 -113 118 -6 30 -23 72
-37 93 -31 46 -29 85 6 104 44 23 159 10 233 -26z"/>
<path d="M518 2814 c-11 -23 -10 -28 11 -45 30 -24 46 -24 72 2 18 18 19 23 6
42 -8 13 -27 23 -46 25 -25 3 -33 -1 -43 -24z"/>
<path d="M512 2678 c-32 -32 -2 -71 50 -66 28 3 33 7 36 32 2 16 -2 32 -10 37
-19 13 -62 11 -76 -3z"/>
<path d="M4244 1436 c-8 -20 -1 -29 20 -24 13 3 13 6 1 22 -13 17 -15 18 -21
2z"/>
<path d="M4142 1358 c-7 -7 -12 -22 -12 -35 0 -40 70 -60 89 -24 9 16 5 23
-24 45 -39 30 -37 30 -53 14z"/>
<path d="M3602 831 c-9 -6 -7 -12 8 -26 15 -14 20 -15 20 -4 0 23 -15 38 -28
30z"/>
<path d="M3495 756 c-18 -13 -16 -46 3 -46 20 0 43 26 36 43 -8 21 -14 21 -39
3z"/>
<path d="M3384 719 c-3 -6 1 -18 10 -27 15 -15 16 -14 16 11 0 27 -13 36 -26
16z"/>
<path d="M1654 715 c-8 -19 2 -45 16 -45 5 0 10 14 10 30 0 31 -16 41 -26 15z"/>
<path d="M1690 698 c0 -30 1 -31 16 -16 9 9 14 24 11 32 -11 27 -27 17 -27
-16z"/>
<path d="M1625 4816 c-680 -275 -1214 -878 -1410 -1592 -60 -217 -77 -344 -82
-599 -4 -177 -1 -259 11 -355 107 -817 611 -1523 1341 -1880 236 -115 460
-186 715 -226 164 -26 569 -27 725 -1 527 87 967 306 1334 662 214 208 364
413 491 670 84 171 131 296 175 469 48 190 66 316 72 532 6 215 -5 363 -43
553 -24 122 -94 352 -115 381 -14 19 -12 13 36 -150 30 -105 85 -377 85 -426
0 -11 -5 -12 -17 -5 -17 8 -18 -4 -15 -204 6 -325 -25 -539 -119 -820 -213
-640 -703 -1170 -1321 -1429 -657 -275 -1391 -247 -2014 78 -708 369 -1184
1066 -1265 1855 -17 165 -7 483 21 641 103 589 431 1130 899 1486 80 61 88 70
71 79 -17 9 -10 16 58 61 110 73 242 146 352 194 99 43 106 47 99 54 -2 2 -40
-10 -84 -28z"/>
</g>
</svg>
